<svg xmlns="http://www.w3.org/2000/svg" viewBox="0 0 32 32">
  <circle cx="16" cy="16" r="14" fill="#3B82F6"/>
  <path d="M16 8a6 6 0 0 1 6 6h-3a3 3 0 0 0-3-3 3 3 0 0 0-3 3c0 1.1.6 2.1 1.4 2.7l-1.3 1.3h8v-3l-1.8 1.8c-1.2-1-2-2.5-2-4.1a6 6 0 0 1 4.1-5.7" fill="none" stroke="white" stroke-width="2" stroke-linecap="round"/>
  <path d="M16 24a6 6 0 0 1-6-6h3a3 3 0 0 0 3 3 3 3 0 0 0 3-3c0-1.1-.6-2.1-1.4-2.7l1.3-1.3h-8v3l1.8-1.8c1.2 1 2 2.5 2 4.1a6 6 0 0 1-4.1 5.7" fill="none" stroke="white" stroke-width="2" stroke-linecap="round"/>
</svg>